<svg xmlns="http://www.w3.org/2000/svg" width="276.242" height="361.428" viewBox="0 0 276.242 361.428">
  <g id="trail-3" transform="matrix(-0.588, -0.809, 0.809, -0.588, -13.264, 332.76)">
    <path id="head" d="M0,14.524,44.7,0l8.343,25.678Z" transform="translate(-82.323 114.876) rotate(48)" fill="#ad2515"/>
    <path id="tail" d="M82.345,315.91a70.912,70.912,0,0,1-12.32-1.124c-19.61-3.456-44.661-32.176-73.668-65.432-11.448-13.125-23.287-26.7-34.982-38.832a342.189,342.189,0,0,0-66.958-53.372l4.973-8.676a345.674,345.674,0,0,1,69.185,55.108c11.868,12.314,23.789,25.981,35.318,39.2,25.435,29.16,51.736,59.314,67.868,62.157,41.228,7.267,52.117-28.875,52.56-30.417l9.611,2.763C133.81,277.707,122.318,315.91,82.345,315.91Z" transform="translate(47.86 0)" fill="#f1c40f"/>
    <path id="explosion" d="M1897.088,3511.526V3428.3l-56.776-57.367,28.8,57.367s-29.067-19.93-28.8-19.122,35.315,43.093,35.315,43.093-66.012-23.432-64.382-22.354,57.863,43.9,57.863,43.9l-28.8,41.746,32.055-27.741-26.35,63.562,29.61-35.821,1.63,21.816Z" transform="matrix(-0.809, -0.588, 0.588, -0.809, -621.772, 4034.542)" fill="#f1c40f"/>
  </g>
</svg>
