<svg height="390.086" viewBox="0 0 424.957 390.086" width="424.957" xmlns="http://www.w3.org/2000/svg"><path d="m1960.206 2854.244c-1.657-1.29-40.822-31.957-60.709-64.121-21.086-34.1-26.489-82.311-31.713-128.93-6.69-59.7-13.009-116.081-50.031-138.893a70.38 70.38 0 0 0 -72.2-.525l-5.486-8.361c1.587-1.044 39.372-25.281 82.844.321 41.257 25.42 47.839 84.158 54.808 146.344 5.1 45.521 10.376 92.592 30.281 124.785 18.951 30.651 57.953 61.183 58.345 61.488z" fill="#f1c40f" transform="matrix(.588 -.809 .809 .588 -3040.285588 119.586509)"/><path d="m0 11.155 44.7 14.523 8.343-25.678z" fill="#ad2515" transform="matrix(-.24177083728 -.97044930721 .97044930721 -.24177083728 12.834066 238.150287)"/></svg>