<svg xmlns="http://www.w3.org/2000/svg" width="424.957" height="390.086" viewBox="0 0 424.957 390.086">
  <g id="trail-2" transform="matrix(0.588, -0.809, 0.809, 0.588, -33.59, 215.517)">
    <path id="tail" d="M1960.206,2854.244c-1.657-1.29-40.822-31.957-60.709-64.121-21.086-34.1-26.489-82.311-31.713-128.93-6.69-59.7-13.009-116.081-50.031-138.893a70.38,70.38,0,0,0-72.2-.525l-5.486-8.361c1.587-1.044,39.372-25.281,82.844.321,41.257,25.42,47.839,84.158,54.808,146.344,5.1,45.521,10.376,92.592,30.281,124.785,18.951,30.651,57.953,61.183,58.345,61.488Z" transform="translate(-1689.949 -2488.264)" fill="#f1c40f"/>
    <path id="head" d="M0,11.155,44.7,25.678,53.043,0Z" transform="translate(8.985 50.854) rotate(-50)" fill="#ad2515"/>
  </g>
</svg>
